<?xml version="1.0" encoding="UTF-8"?>
<svg version="1.1" xmlns="http://www.w3.org/2000/svg" width="1024" height="1113">
<path d="M0 0 C0.66335358 0.00248749 1.32670715 0.00497498 2.01016235 0.00753784 C31.53747416 0.17875578 54.68015899 11.69384846 79.5 26.46484375 C85.21966261 29.86241074 90.98516081 33.17985517 96.75 36.5 C97.85657959 37.13760254 98.96315918 37.77520508 100.10327148 38.43212891 C102.3745547 39.74060508 104.6459587 41.04887161 106.91748047 42.35693359 C112.38419975 45.50582051 117.84827646 48.6592849 123.3125 51.8125 C129.83482439 55.57615365 136.35763763 59.33894623 142.8828125 63.09765625 C154.3669882 69.71472892 165.83446894 76.35883977 177.27832031 83.04541016 C187.83870282 89.21169054 198.43376766 95.3174595 209.03027344 101.42138672 C215.54349567 105.17409569 222.05395355 108.93160015 228.56420898 112.68945312 C233.96582761 115.80691007 239.3694039 118.92086357 244.77734375 122.02734375 C250.17781321 125.13054692 255.56991694 128.24791745 260.95800781 131.37255859 C263.25933889 132.70344482 265.56267002 134.02993166 267.87011719 135.35009766 C294.00774229 150.31366478 294.00774229 150.31366478 304.3125 160.3125 C305.09625 161.02019531 305.88 161.72789062 306.6875 162.45703125 C326.76337914 181.24331399 340.39014209 210.40179272 341.4071908 237.86987472 C341.44683689 240.85405515 341.45538662 243.83681287 341.45294189 246.82125854 C341.45739858 248.53367869 341.45739858 248.53367869 341.4619453 250.28069317 C341.4706005 254.09712976 341.47213787 257.91353486 341.47363281 261.72998047 C341.4777282 264.47039473 341.48326816 267.21080572 341.48867798 269.95121765 C341.50222621 277.39179624 341.50828094 284.83236941 341.51268864 292.27295828 C341.51545781 296.92656282 341.51969646 301.58016531 341.52419281 306.23376846 C341.53638242 319.13933875 341.54668135 332.0449074 341.5500679 344.95048332 C341.55028747 345.775573 341.55050703 346.60066267 341.55073325 347.45075507 C341.55095153 348.27773238 341.55116981 349.1047097 341.5513947 349.95674694 C341.55183815 351.63229744 341.55228472 353.30784794 341.55273438 354.98339844 C341.5529558 355.81451559 341.55317723 356.64563274 341.55340537 357.50193526 C341.5573479 370.94936642 341.57478662 384.3967432 341.5980939 397.84415339 C341.62187583 411.67810753 341.63427291 425.51203448 341.63543582 439.34600937 C341.63634891 447.10197865 341.64200801 454.85787712 341.66025543 462.61382675 C341.6757493 469.22234119 341.6807228 475.83076295 341.67251733 482.43929212 C341.6686429 485.80363198 341.67105385 489.16763594 341.68357468 492.5319767 C341.8179933 530.92569533 332.79640015 562.47624215 305.3125 590.3125 C292.01686504 603.62951058 274.95725593 612.07634495 258.76464844 621.33642578 C253.23177655 624.50354495 247.70944505 627.68887922 242.1875 630.875 C240.57246582 631.80626709 240.57246582 631.80626709 238.92480469 632.75634766 C231.70826754 636.92056974 224.50632968 641.10919056 217.3125 645.3125 C205.76520484 652.05951194 194.18347973 658.74589318 182.59472656 665.42138672 C177.16590062 668.54930146 171.73927993 671.68103731 166.3125 674.8125 C159.79016725 678.57613919 153.26736238 682.33894622 146.7421875 686.09765625 C136.25017869 692.1430518 125.76771288 698.20365248 115.3125 704.3125 C103.7053555 711.09380371 92.06834732 717.82229141 80.41503906 724.52392578 C77.42608796 726.24701799 74.44289112 727.97967706 71.4609375 729.71484375 C38.98667749 748.55676928 6.19849816 757.53446896 -31.125 748.3125 C-49.68199677 743.28136392 -66.17910531 732.93086866 -82.55322266 723.16992188 C-87.86205316 720.02382572 -93.2131882 716.95158671 -98.5625 713.875 C-100.74484411 712.61727849 -102.9271356 711.35946567 -105.109375 710.1015625 C-107.3020405 708.83846731 -109.49474889 707.57544656 -111.6875 706.3125 C-125.36304314 698.43587411 -139.02710958 690.54129908 -152.65332031 682.57958984 C-164.30409185 675.77662377 -175.99653744 669.04607814 -187.6875 662.3125 C-201.36389861 654.4353814 -215.03027183 646.54273119 -228.65551758 638.57739258 C-234.84039266 634.96452599 -241.03926441 631.3771133 -247.24926758 627.80761719 C-251.6042128 625.30225628 -255.95281405 622.78600197 -260.30078125 620.26855469 C-262.61604177 618.93133819 -264.93314219 617.59807688 -267.25390625 616.27050781 C-293.40165211 601.30134012 -293.40165211 601.30134012 -303.6875 591.3125 C-304.55632812 590.51972656 -305.42515625 589.72695313 -306.3203125 588.91015625 C-327.26032816 569.15482038 -339.79934158 539.67387751 -341.05624199 511.04217148 C-341.2468594 503.84198363 -341.21773756 496.64294318 -341.18920898 489.44091797 C-341.1907924 486.68887245 -341.19835623 483.93685016 -341.20558167 481.18481445 C-341.21939738 474.53458386 -341.21204578 467.88454526 -341.19690608 461.23432408 C-341.1799047 453.46585498 -341.18327381 445.69743183 -341.18700016 437.92894985 C-341.19285716 424.05562216 -341.17879147 410.18238568 -341.15405273 396.30908203 C-341.13012908 382.89107853 -341.1230549 369.47319679 -341.13354492 356.05517578 C-341.14498959 341.39009147 -341.14684125 326.72506324 -341.13244683 312.05997956 C-341.13092122 310.49226833 -341.12940086 308.92455709 -341.12788582 307.35684586 C-341.127128 306.58579933 -341.12637019 305.81475281 -341.12558941 305.02034124 C-341.12087465 299.62341426 -341.12267785 294.22651259 -341.12695122 288.82958603 C-341.13191032 282.24147046 -341.12575032 275.6534693 -341.10605692 269.06537972 C-341.09627841 265.71312441 -341.09261814 262.36118469 -341.09894943 259.00889969 C-341.16081607 221.53106056 -332.78093255 189.56541605 -305.6875 162.3125 C-291.95509654 148.55990183 -274.87063311 139.85660011 -258.13964844 130.28857422 C-252.60677655 127.12145505 -247.08444505 123.93612078 -241.5625 120.75 C-240.48581055 120.12915527 -239.40912109 119.50831055 -238.29980469 118.86865234 C-231.08326754 114.70443026 -223.88132968 110.51580944 -216.6875 106.3125 C-205.14020484 99.56548806 -193.55847973 92.87910682 -181.96972656 86.20361328 C-176.54090058 83.07569852 -171.11430719 79.94391552 -165.6875 76.8125 C-163.52084417 75.56248121 -161.3541775 74.31248122 -159.1875 73.0625 C-158.115 72.44375 -157.0425 71.825 -155.9375 71.1875 C-146.1875 65.5625 -146.1875 65.5625 -142.93701172 63.68725586 C-140.77192929 62.43814482 -138.60689018 61.18895871 -136.44189453 59.93969727 C-131.00134294 56.80047691 -125.56002784 53.66259437 -120.1171875 50.52734375 C-110.56329191 45.02228719 -101.01365574 39.51119943 -91.49731445 33.94140625 C-82.48217542 28.66611434 -73.45008738 23.42159315 -64.375 18.25 C-63.46274658 17.72583496 -62.55049316 17.20166992 -61.6105957 16.66162109 C-52.82341119 11.67837417 -43.93420689 7.35745829 -34.1875 4.625 C-33.51847656 4.42583984 -32.84945313 4.22667969 -32.16015625 4.02148438 C-21.43184554 0.9287294 -11.15815208 -0.05002392 0 0 Z M-126.6875 248.3125 C-126.6875 332.4625 -126.6875 416.6125 -126.6875 503.3125 C-42.8675 503.3125 40.9525 503.3125 127.3125 503.3125 C127.3125 419.1625 127.3125 335.0125 127.3125 248.3125 C43.4925 248.3125 -40.3275 248.3125 -126.6875 248.3125 Z " fill="#999999" transform="translate(511.6875,180.6875)"/>
<path d="M0 0 C1.48023399 -0.01475876 1.48023399 -0.01475876 2.9903717 -0.02981567 C44.39266062 -0.3577554 44.39266062 -0.3577554 62.59765625 4.23828125 C63.58975098 4.48497559 64.5818457 4.73166992 65.60400391 4.98583984 C96.42824103 12.87719334 123.25974643 27.31422754 150.49560547 43.41308594 C155.8014708 46.53496924 161.13751467 49.60428744 166.47265625 52.67578125 C168.09046997 53.60825684 168.09046997 53.60825684 169.7409668 54.55957031 C173.02619348 56.45305862 176.31186082 58.34578008 179.59765625 60.23828125 C193.27319939 68.11490714 206.93726583 76.00948217 220.56347656 83.97119141 C232.2142481 90.77415748 243.90669369 97.50470311 255.59765625 104.23828125 C269.27319939 112.11490714 282.93726583 120.00948217 296.56347656 127.97119141 C308.2142481 134.77415748 319.90669369 141.50470311 331.59765625 148.23828125 C345.26893451 156.11245072 358.93055341 164.00154533 372.55029297 171.96459961 C378.8581043 175.64960204 385.18154118 179.3062796 391.51513672 182.94677734 C428.10302435 203.98816327 428.10302435 203.98816327 439.59765625 213.23828125 C440.4690625 213.91890625 441.34046875 214.59953125 442.23828125 215.30078125 C453.10293991 223.94167936 463.86937509 233.40449367 472.59765625 244.23828125 C473.48245151 245.28828437 474.36793675 246.33770625 475.25390625 247.38671875 C498.76744821 275.59292718 514.07438288 309.15021595 521.84765625 344.92578125 C521.99879883 345.6122876 522.14994141 346.29879395 522.30566406 347.00610352 C525.02001258 360.3005904 525.89721999 373.67697786 525.85835266 387.21916199 C525.86138324 388.7484575 525.86527721 390.2777515 525.86994523 391.8070429 C525.88011747 395.95617113 525.87807132 400.10521192 525.87376463 404.25434697 C525.87127754 408.75008937 525.88033602 413.24581177 525.88780212 417.74154663 C525.90049691 426.52910404 525.90234933 435.31663082 525.90000186 444.10419586 C525.89821252 451.25415782 525.8999815 458.40411056 525.9042263 465.55407143 C525.90482149 466.57507521 525.90541668 467.596079 525.90602991 468.6480223 C525.90724177 470.72279713 525.9084559 472.79757196 525.90967228 474.8723468 C525.92052791 494.2936078 525.91839483 513.71485141 525.91228744 533.13611338 C525.90712121 550.86110747 525.91836952 568.58604655 525.93738566 586.31102975 C525.95680891 604.55685959 525.96501213 622.80266346 525.9612624 641.0485037 C525.95935701 651.27373491 525.96177296 661.49891935 525.97597694 671.72414207 C525.98794916 680.43010881 525.98923074 689.13599996 525.97718678 697.84196784 C525.97133852 702.27411877 525.97008471 706.70613187 525.98218918 711.13827324 C526.03887402 733.40304378 525.33772849 755.00141446 519.91015625 776.73828125 C519.52887573 778.28636475 519.52887573 778.28636475 519.13989258 779.86572266 C511.66481335 809.12614953 498.44004182 836.60891124 479.59765625 860.23828125 C478.89253906 861.13546875 478.18742188 862.03265625 477.4609375 862.95703125 C469.32437855 873.12407798 460.67454872 882.95615998 450.59765625 891.23828125 C449.70691406 892.00527344 448.81617188 892.77226563 447.8984375 893.5625 C430.62694585 908.30535497 410.95814657 919.06194475 391.3515625 930.34375 C385.08633642 933.95159747 378.83908621 937.58946121 372.59765625 941.23828125 C358.86731668 949.26131563 345.08687355 957.19686559 331.30664062 965.13378906 C319.72083859 971.80784437 308.14212272 978.49292209 296.59765625 985.23828125 C282.86710437 993.26095636 269.08687659 1001.19686384 255.30664062 1009.13378906 C242.73001705 1016.37861173 230.16728668 1023.64560935 217.63623047 1030.96899414 C209.21196286 1035.88879407 200.76211729 1040.76350263 192.30859375 1045.6328125 C185.05813985 1049.8117734 177.8229024 1054.01590509 170.59765625 1058.23828125 C157.95890013 1065.6201355 145.30064917 1072.96742013 132.59765625 1080.23828125 C131.72286621 1080.73908203 130.84807617 1081.23988281 129.94677734 1081.75585938 C98.30359789 1099.80182093 62.63380778 1113.22765463 25.7421875 1113.44140625 C24.51846436 1113.45192772 24.51846436 1113.45192772 23.27001953 1113.46266174 C20.65000828 1113.48007144 18.03022323 1113.4865146 15.41015625 1113.48828125 C14.06599136 1113.48929337 14.06599136 1113.48929337 12.69467163 1113.49032593 C-0.87950336 1113.47408434 -14.07002077 1113.00814703 -27.40234375 1110.23828125 C-28.27262207 1110.06135742 -29.14290039 1109.88443359 -30.03955078 1109.70214844 C-63.34658187 1102.75393334 -91.78555996 1087.87017427 -120.91699219 1070.7824707 C-128.7130218 1066.21006101 -136.54899113 1061.71110592 -144.40234375 1057.23828125 C-154.07743566 1051.72613961 -163.7151718 1046.15403167 -173.32421875 1040.52734375 C-180.98808349 1036.0466186 -188.6892021 1031.63333901 -196.40234375 1027.23828125 C-206.12358881 1021.69842192 -215.81129243 1016.10453193 -225.46923828 1010.45483398 C-235.99319 1004.30061383 -246.55614512 998.21458129 -257.12011719 992.12939453 C-262.54894317 989.00147977 -267.97553656 985.86969677 -273.40234375 982.73828125 C-275.56899958 981.48826246 -277.73566625 980.23826247 -279.90234375 978.98828125 C-301.56901042 966.48828125 -323.23567708 953.98828125 -344.90234375 941.48828125 C-345.97548828 940.86928955 -347.04863281 940.25029785 -348.15429688 939.61254883 C-350.31490881 938.3657796 -352.47506736 937.11822432 -354.63476562 935.86987305 C-360.14056497 932.68875376 -365.65423821 929.52283257 -371.18359375 926.3828125 C-393.14815535 913.88108068 -414.98987461 900.85932794 -432.40234375 882.23828125 C-433.22734375 881.41328125 -434.05234375 880.58828125 -434.90234375 879.73828125 C-435.72734375 878.91328125 -436.55234375 878.08828125 -437.40234375 877.23828125 C-437.93859375 876.7484375 -438.47484375 876.25859375 -439.02734375 875.75390625 C-450.39270491 865.05152449 -459.37533935 851.5572451 -467.40234375 838.23828125 C-467.76247559 837.65353027 -468.12260742 837.0687793 -468.49365234 836.46630859 C-488.6836635 803.48068878 -498.56927655 764.67127735 -498.54278564 726.18183899 C-498.54537367 724.66754827 -498.54838804 723.15325823 -498.55178905 721.63896912 C-498.55981138 717.49878254 -498.56164595 713.35861334 -498.56238651 709.21841991 C-498.5642455 704.74435331 -498.57179719 700.27029556 -498.57852173 695.79623413 C-498.59207316 686.02080159 -498.59812521 676.24537316 -498.60253239 666.46993279 C-498.60530106 660.35659909 -498.60953961 654.24326695 -498.61403656 648.12993431 C-498.62622665 631.17788066 -498.63652544 614.22582827 -498.63991165 597.27377033 C-498.64013122 596.18985892 -498.64035078 595.10594751 -498.640577 593.98919029 C-498.64079528 592.90279105 -498.64101356 591.81639181 -498.64123845 590.69707137 C-498.64168191 588.49588287 -498.64212847 586.29469436 -498.64257812 584.09350586 C-498.64279955 583.00165716 -498.64302098 581.90980847 -498.64324912 580.78487345 C-498.64719175 563.11831149 -498.66463059 545.45179091 -498.68793765 527.78524492 C-498.71171656 509.61308622 -498.72411652 491.44094823 -498.72527957 473.26877373 C-498.72619283 463.07973137 -498.73185643 452.89074289 -498.75009918 442.70171547 C-498.76558892 434.0201332 -498.7705689 425.33862147 -498.76236108 416.657028 C-498.75848529 412.23694937 -498.75923141 407.81701238 -498.77341843 403.39695168 C-498.84171361 380.82476656 -498.26586936 358.70896337 -492.71484375 336.67578125 C-492.46138184 335.6496875 -492.20791992 334.62359375 -491.94677734 333.56640625 C-482.60431533 297.11567265 -464.33347954 264.44055115 -438.40234375 237.23828125 C-437.16495143 235.80785572 -435.93483021 234.37108052 -434.71484375 232.92578125 C-431.2595209 228.95704958 -427.43446358 225.60758686 -423.40234375 222.23828125 C-422.0565625 221.078125 -422.0565625 221.078125 -420.68359375 219.89453125 C-403.41027048 205.16675036 -383.75634583 194.41088436 -364.15625 183.1328125 C-357.89102392 179.52496503 -351.64377371 175.88710129 -345.40234375 172.23828125 C-333.85522687 165.49096701 -322.27332114 158.80488673 -310.68457031 152.12939453 C-305.25574437 149.00147979 -299.82912368 145.86974394 -294.40234375 142.73828125 C-287.880011 138.97464206 -281.35720613 135.21183503 -274.83203125 131.453125 C-263.34927478 124.83687008 -251.88273474 118.19438114 -240.44091797 111.50756836 C-232.01665036 106.58776843 -223.56680479 101.71305987 -215.11328125 96.84375 C-207.86282834 92.66478967 -200.62750512 88.46080136 -193.40234375 84.23828125 C-181.85511889 77.49115011 -170.27332256 70.80488755 -158.68457031 64.12939453 C-154.33719275 61.62457553 -149.99127986 59.11722235 -145.64550781 56.60961914 C-143.48871496 55.36512823 -141.33181444 54.12082391 -139.17480469 52.87670898 C-133.63189941 49.67961948 -128.09030094 46.48029624 -122.55078125 43.27734375 C-117.11012965 40.13204621 -111.66577978 36.99325268 -106.21826172 33.85986328 C-104.47379328 32.85528903 -102.73041055 31.84882371 -100.98876953 30.83935547 C-70.29698561 13.05230636 -35.85737782 0.29259275 0 0 Z M-74.125 115.30126953 C-79.22065113 118.31295726 -84.36299778 121.24219478 -89.50769043 124.16897583 C-92.46879689 125.85363237 -95.4277757 127.54201609 -98.38671875 129.23046875 C-99.26447968 129.73124687 -99.26447968 129.73124687 -100.15997314 130.24214172 C-109.51881574 135.58455795 -118.84528668 140.98329085 -128.17578125 146.375 C-131.43758382 148.25863175 -134.70096219 150.13950446 -137.96484375 152.01953125 C-148.45973291 158.06575437 -158.94464914 164.12791606 -169.40234375 170.23828125 C-180.94963891 176.98529319 -192.53136402 183.67167443 -204.12011719 190.34716797 C-209.54894317 193.47508273 -214.97553656 196.60686573 -220.40234375 199.73828125 C-222.56899958 200.98830004 -224.73566625 202.23830003 -226.90234375 203.48828125 C-227.97484375 204.10703125 -229.04734375 204.72578125 -230.15234375 205.36328125 C-291.90234375 240.98828125 -291.90234375 240.98828125 -295.15478516 242.86450195 C-297.31353078 244.11005696 -299.47206076 245.35598579 -301.63037109 246.60229492 C-307.16648801 249.79845969 -312.70661718 252.98732231 -318.25390625 256.1640625 C-324.65133753 259.83053647 -331.03421064 263.52115557 -337.40234375 267.23828125 C-338.21477539 267.71104492 -339.02720703 268.18380859 -339.86425781 268.67089844 C-349.95495624 274.5876569 -358.82328269 281.28517189 -367.40234375 289.23828125 C-368.30726563 290.07230469 -369.2121875 290.90632812 -370.14453125 291.765625 C-388.83141589 309.72482722 -401.77213264 333.30219605 -408.21484375 358.30078125 C-408.5075415 359.43181274 -408.5075415 359.43181274 -408.80615234 360.58569336 C-411.8422105 373.27791704 -412.70139901 386.11232308 -412.66304016 399.11857605 C-412.66607092 400.54047653 -412.66996497 401.96237539 -412.67463273 403.38427144 C-412.6848027 407.24115077 -412.68275942 411.09793601 -412.67845213 414.95482266 C-412.6759646 419.13426949 -412.68502405 423.31369482 -412.69248962 427.49313354 C-412.70518334 435.66219559 -412.70703695 443.83122469 -412.70468936 452.00029495 C-412.70289985 458.64733384 -412.70466934 465.29436281 -412.7089138 471.94140053 C-412.70950899 472.89066914 -412.71010418 473.83993774 -412.71071741 474.81797207 C-412.71192927 476.74699217 -412.71314341 478.67601227 -412.71435978 480.60503236 C-412.72521505 498.66139129 -412.72308254 516.71773149 -412.71697494 534.77409146 C-412.71180902 551.25178674 -412.72305624 567.72942285 -412.74207316 584.20710643 C-412.76149869 601.1703361 -412.76969922 618.13353784 -412.7659499 635.09677869 C-412.76404482 644.60267257 -412.76645739 654.10851612 -412.78066444 663.61440086 C-412.79263961 671.70814108 -412.79391502 679.80179999 -412.78187428 687.89554145 C-412.77602798 692.01567421 -412.77476656 696.13565872 -412.78687668 700.25578117 C-412.91463661 747.03709441 -403.23663937 788.29852876 -369.52734375 822.48828125 C-359.30877043 832.54656971 -347.79096922 840.12384492 -335.40234375 847.23828125 C-333.4619617 848.36149925 -331.52188021 849.48523658 -329.58203125 850.609375 C-324.00322656 853.83776876 -318.41726444 857.05359009 -312.82958984 860.26660156 C-307.35078578 863.41853357 -301.87673262 866.57868922 -296.40234375 869.73828125 C-294.23570149 870.98832355 -292.06903478 872.23832349 -289.90234375 873.48828125 C-120.90234373 970.98828126 -120.90234373 970.98828126 -117.65112305 972.86401367 C-115.48855792 974.11162865 -113.32596036 975.35918741 -111.16333008 976.60668945 C-104.57317901 980.40829878 -97.98429524 984.2120935 -91.39624023 988.01733398 C-88.13385667 989.90037705 -84.86979586 991.78048487 -81.60546875 993.66015625 C-77.62950858 995.95009239 -73.66114628 998.25228668 -69.69921875 1000.56640625 C-32.34636719 1022.3085596 6.79925372 1033.05243375 49.765625 1021.94921875 C72.87545694 1015.58374101 93.48820784 1003.15498854 113.9609375 990.98046875 C119.62244396 987.61891012 125.32977755 984.33713659 131.03515625 981.05078125 C132.14213867 980.41293701 133.24912109 979.77509277 134.38964844 979.11791992 C136.66052899 977.80969525 138.9315261 976.50167288 141.20263672 975.19384766 C146.66935605 972.04496071 152.13340512 968.89144861 157.59765625 965.73828125 C159.76430936 964.48825775 161.93097604 963.23825778 164.09765625 961.98828125 C165.70640625 961.06015625 165.70640625 961.06015625 167.34765625 960.11328125 C229.09765624 924.48828125 229.09765624 924.48828125 232.34814453 922.61303711 C234.51322696 921.36392607 236.67826607 920.11473996 238.84326172 918.86547852 C244.28381331 915.72625816 249.72512841 912.58837562 255.16796875 909.453125 C265.61971824 903.43080796 276.06065173 897.39158788 286.47265625 891.30078125 C295.15028077 886.22552878 303.86379162 881.21583572 312.59765625 876.23828125 C323.33357162 870.11911394 334.03103599 863.9375748 344.69140625 857.6875 C348.78209728 855.29099577 352.88769395 852.92270046 357.00390625 850.5703125 C394.70224562 828.96630845 422.53373837 799.62156472 434.78515625 757.23828125 C438.61134679 743.10244407 439.90144176 728.96811452 439.85835266 714.35798645 C439.86138342 712.93608597 439.86527747 711.51418711 439.86994523 710.09229106 C439.8801152 706.23541173 439.87807192 702.37862649 439.87376463 698.52173984 C439.8712771 694.34229301 439.88033655 690.16286768 439.88780212 685.98342896 C439.90049584 677.81436691 439.90234945 669.64533781 439.90000186 661.47626755 C439.89821235 654.82922866 439.89998184 648.18219969 439.9042263 641.53516197 C439.90482149 640.58589336 439.90541668 639.63662476 439.90602991 638.65859043 C439.90724177 636.72957033 439.90845591 634.80055023 439.90967228 632.87153014 C439.92052755 614.81517121 439.91839504 596.75883101 439.91228744 578.70247104 C439.90712152 562.22477576 439.91836874 545.74713965 439.93738566 529.26945607 C439.95681119 512.3062264 439.96501172 495.34302466 439.9612624 478.37978381 C439.95935732 468.87388993 439.96176989 459.36804638 439.97597694 449.86216164 C439.98795211 441.76842142 439.98922752 433.67476251 439.97718678 425.58102105 C439.97134048 421.46088829 439.97007906 417.34090378 439.98218918 413.22078133 C440.1143476 364.87968848 430.05578454 325.08827188 395.18017578 289.80419922 C381.20948544 275.91983652 364.01159119 266.86798873 347.02490234 257.19384766 C341.53724092 254.06262042 336.06815916 250.89935669 330.59765625 247.73828125 C328.4310845 246.48811674 326.26441767 245.23811699 324.09765625 243.98828125 C293.76432292 226.48828125 263.43098958 208.98828125 233.09765625 191.48828125 C232.02499512 190.86945068 230.95233398 190.25062012 229.84716797 189.61303711 C227.68208554 188.36392607 225.51704643 187.11473996 223.35205078 185.86547852 C217.91149919 182.72625816 212.47018409 179.58837562 207.02734375 176.453125 C195.54316805 169.83605233 184.07568731 163.19194148 172.63183594 156.50537109 C162.07145343 150.33909071 151.47638859 144.23332175 140.87988281 138.12939453 C136.53246991 135.62455517 132.18648633 133.11724358 127.84082031 130.609375 C125.68430933 129.36520908 123.52741011 128.12171585 121.37011719 126.87890625 C115.82040783 123.68082547 110.27783534 120.47126118 104.74609375 117.2421875 C84.08902131 105.204432 64.1731 94.25959157 40.59765625 89.23828125 C39.53675781 89.01011719 38.47585938 88.78195313 37.3828125 88.546875 C-3.76305256 81.27387289 -39.46658028 94.63666401 -74.125 115.30126953 Z " fill="#999999" transform="translate(498.40234375,-0.23828125)"/>
</svg>
